<svg xmlns="http://www.w3.org/2000/svg" width="292.413" height="184.993" viewBox="0 0 292.413 184.993"><path fill="#FFF" stroke="#000" stroke-width="2" stroke-miterlimit="10" d="M5.6 89.05l172.254-69.317L290.29 89.05l-183.15 95.802z"/><g fill="none" stroke="#D8D8D8" stroke-width="2" stroke-miterlimit="10"><path d="M55.397 93.257l56.72 48.284M52.488 92.384l62.828 52.648M54.907 104.77l129.227-58.942M48.82 105.322l138.912-60.6M202.398 53.023l-40.954-1.107M203.228 53.853l-37.634-3.874M70.854 88.05v27M69.573 89.826l.83 22.69M77.322 125.8l22.69-10.516M179.43 43.06l16.88 10.24M130.45 70.456l57.282 44.828"/></g><g fill="none" stroke="#333" stroke-width="2" stroke-miterlimit="10"><path d="M183.376 46.64L46.092 108.75M57.112 95.606l57.028 47.47M124.505 65.836l26.36 21.118"/></g><path fill="#AA8F4D" d="M166.396 43.95l1.597 2.736L61.27 93.48l104.944-49.45"/><path fill="#F2E1B1" d="M166.396 43.95l-.182.08-106.5 46.235-.48-.303L47.61 82.64l107.31-45.69"/><path fill="#AA8F4D" d="M59.714 90.265l106.5-46.236L61.27 93.48l-1.608-3.19"/><path fill="#775B1C" d="M59.662 90.29l1.608 3.19-13.522-8.81-.14-2.03 11.627 7.322.48.303"/><g fill="none" stroke="#000" stroke-width="2" stroke-miterlimit="10"><path d="M47.61 82.64l107.31-45.69 11.476 7 1.597 2.736L61.27 93.48l-13.522-8.81z"/><path d="M47.61 82.64l11.625 7.322.48.303"/><path d="M61.27 93.48l-1.608-3.19.052-.025 106.5-46.236M166.396 43.95l-.182.08"/></g><path fill="none" stroke="#333" stroke-width="2" stroke-miterlimit="10" d="M58.64 82.993l7.34 4.746M65.154 80.056L71.91 84.6M71.32 77.558l7.07 4.695M77.447 74.55L84.79 79.3M83.962 71.615l7.248 4.874M90.327 69.25l6.87 4.562M96.255 66.11l7.343 4.746M109.135 60.808l6.87 4.563M122.015 55.506l6.87 4.563M145.775 44.95l6.87 4.56"/><g><path fill="#F9B51C" d="M164.874 61.582l75.665-54.08 5.233 7.323-75.665 54.08z"/><path fill="#A57726" d="M169.526 68.09l75.665-54.08 4.072 5.696-75.665 54.08z"/><path fill="#F9B51C" d="M173.596 73.786l75.665-54.08 3.49 4.882-75.665 54.08z"/><path fill="#BCBCBC" d="M231.784 13.812c-.053.01-.1.032-.152.046-.16.134-.32.267-.498.394-.17.12-.34.226-.51.33-1.277 1.832-.02 6.375 3.1 10.74 3.2 4.477 7.215 7.17 9.324 6.367l.05.07 10.772-7.697L241.555 6.83l-9.77 6.982z"/><path fill="#B868BC" d="M240.4 7.654c-.052.01-.1.032-.153.047-.16.138-.326.273-.507.402-.164.117-.33.218-.494.318-1.282 1.83-.027 6.375 3.096 10.744 3.2 4.477 7.215 7.17 9.324 6.367l.05.073 10.772-7.698L250.172.67l-9.77 6.984z"/><ellipse transform="rotate(-35.554 256.64 8.935)" fill="#F4C4F7" cx="256.653" cy="8.934" rx="4.352" ry="10.666"/><path fill="#D8C598" d="M165.433 61.732l-15.86 24.065 27.637-6.943-12.342-17.268.262-.188"/><path fill="#353535" d="M155.92 76.34l-6.354 9.32 10.778-2.888-4.423-6.188.098-.07"/><path fill="#D8C598" d="M165.44 61.803l6.663-.18-2.592 6.46-4.642-6.497.286-.205M173.825 73.533l6.32-.66-2.935 5.98-3.62-5.064.286-.205M169.865 67.993l6.375-.582-2.88 6.058-3.84-5.374.286-.204"/><path fill="none" stroke="#000" stroke-width="2" stroke-miterlimit="10" d="M149.935 85.882l27.65-6.9 85.387-61.205s3.363-2.795-2.868-11.31-9.376-5.018-9.376-5.018l-85.092 60.815-15.7 23.617"/><path fill="none" stroke="#000" stroke-width="2" stroke-miterlimit="10" d="M165.454 61.82l6.75-.256-2.505 6.385 6.63-.61-2.782 5.994 6.633-.607-2.783 5.993M229.898 16.093s-1.576 1.924 4.046 9.79c5.622 7.868 8.926 6.464 8.926 6.464M238.515 9.934s-1.576 1.924 4.046 9.79c5.623 7.868 8.927 6.464 8.927 6.464M249.286 2.236s-1.576 1.924 4.046 9.79c5.622 7.868 8.926 6.464 8.926 6.464"/></g></svg>