<svg xmlns="http://www.w3.org/2000/svg" width="500" height="381" viewBox="0 0 500 381"><g stroke="#000" stroke-width="4" stroke-miterlimit="10"><path fill="#565655" d="M266 277h-31.095c0 86 0 86-74.905 86v18h180v-18c-74 0-74 0-74-86z"/><path fill="#565655" d="M497 274.174c0 13.71-11.115 24.826-24.826 24.826H25.826C12.116 299 1 287.885 1 274.174V24.826C1 11.116 12.115 0 25.826 0h446.348C485.884 0 497 11.115 497 24.826v249.348z"/><path fill="#94A5AF" d="M18 11h462v277H18z"/></g><path fill="#BFBFBF" stroke="#000" stroke-width="4" stroke-miterlimit="10" d="M281.684 71.88c8.223 30.602-15.894 57.578-15.894 57.578s-122.996 114.08-123.672 116.825c2.294 12.623 13.058 20.216 22.84 22.84 3.158-.955 93.93-99.302 117.226-123.272s67.415-43.995 67.415-43.995L281.683 71.88zM279.37 64.41c19.32-32.868 40.302-36.204 42.488-35.11l-9.732 28.038 2.22 6.525 25.273 11.066 7.923-4.1L358.2 45.148c6.693-1.503 8.196 30.055 5.873 35.11 0 0-3.093 11.47-10.656 15.574L279.37 64.41z"/><path fill="#727272" stroke="#000" stroke-width="4" stroke-miterlimit="10" d="M321.626 98.03l-12.848 12.477-146.35 149.368-10.78-10.78s129.97-127.847 133.793-131.67 17.933-28.94 17.933-28.94l18.253 9.544z"/><path fill="#CECECE" stroke="#000" stroke-width="4.00008" stroke-miterlimit="10" d="M300.19 94.62l5.476-11.072 18.736 9.265-5.475 11.072z"/><g stroke="#000" stroke-width="4" stroke-miterlimit="10"><path fill="#AFAEAE" d="M184.1 93.218l19.764-19.63s-10.182-7.39-10.868-19.01c-.71-14.067 48.7-7.452 48.46-11.967-.794-6.027-48.077-7.168-48.077-7.168C171.82 38.03 149.94 62.01 149.94 62.01c-1.802 2.272.954 5.834-6.19 12.424s-10.06 5.83-11.73 7.583l-9.07 9.513c-.055 7.667 14.993 18.805 20.088 17.146l8.294-9.242s-.83-10.664 9.994-15.073c12.518-4.356 20.93 10.688 22.773 8.858z"/><path fill="#996B4B" d="M185.81 92.844c-.408-.918 16.572-18.706 18.38-17.89 2.85 2.84 6.243 4.81 7.63 6.318 6.143 10.388 46.438 50.51 46.438 50.51s34.122 32.44 38.913 37.51c4.792 5.072 33.877 36.37 42.252 44.716s30.948 29.392 33.436 31.17c2.49 1.78.395 4.25 0 5.776-4.2 10.054-10.37 13.91-16.888 16.584-2.897 1.386-3.772.947-5.267.43-4.195-6.223-25.54-29.66-31.496-36.226-5.955-6.566-39.26-38.728-45.256-45.363l-33.215-36.765c-6.39-8.01-45.506-48.365-49.878-49.663-2.346-4.733-4.636-6.19-5.046-7.108z"/></g></svg>