<?xml version="1.0" encoding="utf-8"?>
<!-- Generator: Adobe Illustrator 17.0.0, SVG Export Plug-In . SVG Version: 6.00 Build 0)  -->
<!DOCTYPE svg PUBLIC "-//W3C//DTD SVG 1.1//EN" "http://www.w3.org/Graphics/SVG/1.1/DTD/svg11.dtd">
<svg version="1.1" id="Layer_2" xmlns="http://www.w3.org/2000/svg" xmlns:xlink="http://www.w3.org/1999/xlink" x="0px" y="0px"
	 width="388.307px" height="213.81px" viewBox="0 0 388.307 213.81" enable-background="new 0 0 388.307 213.81"
	 xml:space="preserve">
<path d="M384.538,66.863C307.94,85.541,199.912,201.347,199.912,201.347s22.227-51.532,24.636-55.938s19.928-27.511,22.028-40.287
	c1.603-4.1,1.994-7.547,0.29-8.695c-5.256-2.842,0.9,3.046-14.202-0.58c-0.475-2.634-2.319-2.609-2.319-2.609
	c-7.701,14.354-12.696,6.307-16.521,10.144c-1.716,2.817-1.342,4.369-0.29,6.087s1.688,1.194,2.898,2.319
	c6.087,7.084-13.584,17.8-14.366,17.373c-6.57-4.463,4.565-19.389,5.382-20.851c0.816-1.462-1.531-5.582-2.898-4.637
	c-2.959,6.361-2.357,8.134-4.637,11.304c-6.436,6.895-14.157,15.777-16.017,16.231c-6.066,2.046-0.187-26.167-3.555-27.81
	c-0.417-0.203-2.422-2.679-3.327-0.847c-3.552,7.186-12.004,20.537-13.351,20.823c-1.347,0.286,3.6-15.526,4.614-17.107
	c1.021-1.592-0.171-2.084-0.881-2.818c-1.078,0.491-3.246-1.45-3.122,0.173c0.084,6.891-20.494,23.794-22.536,22.896
	c-1.429-0.163,4.738-27.252-1.224-25.671c-5.962,1.581-12.487,8.498-12.487,8.498s1.229-3.386,0.628-4.558
	c-3.629-7.077-26.394,0.431-29.071,0.396c-2.677-0.035-7.083-2.135-7.332-1.627c-0.249,0.508-0.39,1.472-0.751,1.562
	c-0.36,0.09-0.841-1.322-1.712-0.36c-2.032,2.152-12.224,16.159-13.445,15.861c-1.903,1.259-55.246,39.682-68.331,26.881
	c-21.95-20.741,15.659-87.885,24.8-97.813S85.155-8.942,94.727,6.674c4.963,8.096-10.299,29.782-13.645,31.129
	c0,0-1.975,4.178,0.996,4.134c1.661-0.411,3.639-3.1,3.639-3.1S105.732,8.846,98.179,2.809
	C85.173-11.657,43.024,33.704,31.807,48.893c-21.258,25.106-43.075,84.73-25.216,100.573c20.197,13.659,63.263-25.379,68.691-26.375
	c-3.249,12.515,6.666,14.202,6.666,14.202c13.637,7.734,29.744-17.569,28.694-20.289c-4.397-9.661-8.985-10.144-8.985-10.144
	s24.307-8.592,23.187-2.319c2.103,6.273-10.724,21.738-10.724,21.738c-0.189,2.261,2.559,5.03,3.478,4.637
	s4.312-10.406,6.087-13.333c3.386-7.142,13.302-14.472,15.193-14.505c3.19-0.791-2.262,25.957-0.121,26.098
	c0.091,2.338,15.957-5.099,24.926-22.607c2.188-0.962-6.001,24.163-2.898,24.926c4.218,1.259,13.019-23.657,15.941-23.477
	c4.888,0.564-1.979,21.394,4.058,24.056c6.036,2.663,16.945-15.931,18.432-15.064c-2.975,5.702-2.321,9.812-1.912,10.426
	c6.746,10.027,18.141-5.682,21.001-9.063c5.092-8.091,0.601-10.264-0.133-11.516c-1.945-3.881,12.411-2.347,13.043-5.507
	c0.726-4.918,12.012,0.423,12.753,2.029c1.485,6.317-18.801,33.547-23.187,43.765c-10.107,23.545-22.505,56.99-25.506,59.417
	c-1.744,1.601-2.464,1.843-2.609,3.188c-0.145,1.345,2.029,4.058,2.029,4.058c4.892,0.015,5.76-11.266,8.985-11.594
	c2.601-0.044,98.375-113.449,184.626-129.557C388.377,68.917,384.538,66.863,384.538,66.863z M108.24,118.318
	c0.789,7.181-14.993,17.518-17.992,18.308c-3.867,0.868-15.309-0.631-11.6-12.389c0.395-1.894,9.864-13.099,14.125-15.309
	C95.772,107.349,106.267,108.375,108.24,118.318z"/>
</svg>
