<svg xmlns="http://www.w3.org/2000/svg" width="524.518" height="589.161" viewBox="0 0 524.518 589.161"><g stroke="#000" stroke-width="4" stroke-miterlimit="10"><path fill="#EDEDED" d="M25.526 154.312L67.98 56.13l192.618 83.287-42.454 98.183zM255.536 152.405L410.68 219.49l-30.463 70.45-155.144-67.084z" stroke-width="4.00016"/><path fill="#EDEDED" d="M402.11 237.986l105.677 45.694-13.287 30.73-105.677-45.696z" stroke-width="4.00016"/><path fill="#444" d="M51.845 35.817l20.986 9.075L20.98 164.81l-20.987-9.076zM513.943 269.44l10.493 4.538-25.926 59.96-10.493-4.538z" stroke-width="4.00016"/></g><g stroke="#000" stroke-width="4" stroke-miterlimit="10"><path fill="#444" d="M500.516 498.234l-206.604-206.1v-2.037h-1.595l-3.43-3.43-3.43 3.43h-3.98l-3.428-3.43-3.43 3.43h-1.708v-.254L65.22 498.233l14.224 14.574L272.912 318.99v271.107h21V321.28L485.69 512.808z"/><path fill="#EDEDED" d="M321.257 263.76l-62.83-26.064-10.568 26.378 44.955 19.023h-47.903v26h68v-26.35z"/><circle fill="#5E5E5E" cx="283.403" cy="279.133" r="21.368"/></g></svg>