<svg xmlns="http://www.w3.org/2000/svg" width="532.436" height="563.124" viewBox="0 0 532.436 563.124"><g stroke="#000" stroke-width="4" stroke-miterlimit="10"><path fill="#C19A44" d="M30.034 121.868l42.454-98.182 192.617 83.287-42.454 98.183z" stroke-width="4.00016"/><path fill="#A3741F" d="M260.045 119.962l155.143 67.084-30.463 70.452-155.144-67.084z" stroke-width="4.00016"/><path fill="#C19A44" d="M406.62 205.542l105.676 45.695-13.287 30.728L393.33 236.27z" stroke-width="4.00016"/><path fill="#262626" d="M56.353 3.375L77.34 12.45 25.486 132.365 4.5 123.292zM518.452 236.997l10.493 4.537-25.927 59.96-10.492-4.537z" stroke-width="4.00016"/></g><g stroke="#000" stroke-width="4" stroke-miterlimit="10"><path fill="#262626" d="M505.023 465.79L298.42 259.69v-2.036h-1.596l-3.43-3.43-3.43 3.43h-3.98l-3.428-3.43-3.43 3.43h-1.707v-.254L69.725 465.79l14.225 14.575 193.47-193.817v271.106h21V288.838l191.777 191.527z"/><path fill="#C19A44" d="M325.764 231.316l-62.83-26.063-10.568 26.38 44.956 19.02H249.42v26h68v-26.35z"/><circle fill="#262626" cx="287.91" cy="246.691" r="21.368"/></g></svg>