<svg xmlns="http://www.w3.org/2000/svg" width="668.376" height="700.949" viewBox="0 0 668.376 700.949"><path fill="#3A352E" d="M31.855 167.924c-1.073 2.18-3.71 3.078-5.892 2.005L2.458 158.357c-2.18-1.073-3.078-3.71-2.005-5.892L74.297 2.458C75.37.278 78.007-.62 80.19.453l23.504 11.57c2.18 1.074 3.078 3.712 2.005 5.893L31.854 167.924z"/><path fill="#966F36" d="M228.078 251.59c-1.22 2.478-4.217 3.497-6.694 2.278l-174.95-86.123c-2.48-1.22-3.498-4.217-2.28-6.694l62.716-127.4c1.22-2.477 4.217-3.496 6.694-2.277l174.95 86.122c2.48 1.22 3.498 4.217 2.28 6.694l-62.716 127.4zM497.344 341.785c-1.22 2.478-3.798 3.704-5.758 2.738l-90.17-44.387c-1.96-.965-2.56-3.756-1.342-6.233l30.032-61.01c1.22-2.477 3.798-3.703 5.758-2.737l90.17 44.387c1.96.965 2.56 3.756 1.34 6.233l-30.03 61.01z"/><path fill="#BB965B" d="M387.17 304.27c-1.22 2.477-4.218 3.496-6.695 2.277l-133.68-65.807c-2.48-1.22-3.498-4.217-2.28-6.694l43.283-87.924c1.22-2.478 4.217-3.497 6.694-2.278l133.68 65.806c2.48 1.22 3.498 4.217 2.28 6.694l-43.283 87.925zM597.568 372.103c-1.22 2.478-4.217 3.497-6.694 2.278l-78.055-38.423c-2.48-1.22-3.498-4.217-2.28-6.694l15.46-31.4c1.22-2.48 4.216-3.498 6.693-2.28l78.055 38.425c2.478 1.22 3.497 4.217 2.278 6.694l-15.458 31.4z"/><path fill="#3A352E" d="M613.828 397.94c-1.22 2.48-4.217 3.498-6.694 2.28l-8.075-3.976c-2.478-1.22-3.498-4.217-2.28-6.694l30.033-61.01c1.22-2.477 4.217-3.496 6.694-2.277l8.075 3.975c2.477 1.22 3.497 4.217 2.278 6.694l-30.032 61.01z"/><path fill="#966F36" d="M370.06 306.367l-48.848-23.018c-2.498-1.178-5.477-.107-6.654 2.39l-12.788 27.14c-1.177 2.497-.106 5.476 2.392 6.653l.24.113c4.032-9.84 13.7-16.775 24.993-16.775 14.913 0 27.002 12.09 27.002 27.003s-12.09 27.002-27.002 27.002c-12.898 0-23.677-9.046-26.356-21.138l-.764-.006c-2.76-.02-5.018 2.2-5.04 4.96l-.245 30c-.02 2.76 2.2 5.017 4.96 5.04l53.998.44c2.76.022 5.018-2.198 5.04-4.96l.245-29.998c.008-1-.285-1.93-.784-2.715l12.003-25.475c1.175-2.5.104-5.478-2.393-6.655z"/><path fill="#3A352E" d="M573.88 592.248l-212.3-212.3h-63.94l-212.3 212.3c-1.952 1.953-1.952 5.118 0 7.07l9.9 9.9c1.953 1.953 5.118 1.953 7.07 0l214.8-214.798v300.53c0 2.76 2.24 5 5 5h14c2.76 0 5-2.24 5-5V393.42l215.798 215.798c1.953 1.953 5.118 1.953 7.07 0l9.9-9.9c1.953-1.952 1.953-5.118 0-7.07z"/><circle fill="#3A352E" cx="329.524" cy="330.003" r="22.871"/></svg>